<svg width="16" height="16" viewBox="0 0 16 16" fill="none" xmlns="http://www.w3.org/2000/svg">
<path d="M15.2009 4.95547C15.0966 4.85047 14.9724 4.76721 14.8357 4.71048C14.699 4.65376 14.5523 4.62471 14.4043 4.625H12.1543V4.0625C12.1543 3.01821 11.7395 2.01669 11.001 1.27827C10.2626 0.539843 9.26109 0.125 8.2168 0.125C7.17251 0.125 6.17099 0.539843 5.43256 1.27827C4.69414 2.01669 4.2793 3.01821 4.2793 4.0625V4.625H2.0293C1.73093 4.625 1.44478 4.74353 1.2338 4.9545C1.02282 5.16548 0.904297 5.45163 0.904297 5.75V13.3438C0.904297 14.7148 2.06445 15.875 3.43555 15.875H12.998C13.6613 15.8752 14.2982 15.6159 14.7727 15.1525C15.0115 14.9247 15.2017 14.6509 15.3317 14.3476C15.4617 14.0442 15.529 13.7177 15.5293 13.3877V5.75C15.5297 5.60244 15.501 5.45626 15.4446 5.31989C15.3882 5.18352 15.3054 5.05966 15.2009 4.95547ZM10.4668 10.8125H8.7793V12.5C8.7793 12.6492 8.72003 12.7923 8.61454 12.8977C8.50906 13.0032 8.36598 13.0625 8.2168 13.0625C8.06761 13.0625 7.92454 13.0032 7.81905 12.8977C7.71356 12.7923 7.6543 12.6492 7.6543 12.5V10.8125H5.9668C5.81761 10.8125 5.67454 10.7532 5.56905 10.6477C5.46356 10.5423 5.4043 10.3992 5.4043 10.25C5.4043 10.1008 5.46356 9.95774 5.56905 9.85225C5.67454 9.74676 5.81761 9.6875 5.9668 9.6875H7.6543V8C7.6543 7.85082 7.71356 7.70774 7.81905 7.60225C7.92454 7.49676 8.06761 7.4375 8.2168 7.4375C8.36598 7.4375 8.50906 7.49676 8.61454 7.60225C8.72003 7.70774 8.7793 7.85082 8.7793 8V9.6875H10.4668C10.616 9.6875 10.7591 9.74676 10.8645 9.85225C10.97 9.95774 11.0293 10.1008 11.0293 10.25C11.0293 10.3992 10.97 10.5423 10.8645 10.6477C10.7591 10.7532 10.616 10.8125 10.4668 10.8125ZM11.0293 4.625H5.4043V4.0625C5.4043 3.31658 5.70061 2.60121 6.22806 2.07376C6.75551 1.54632 7.47088 1.25 8.2168 1.25C8.96272 1.25 9.67809 1.54632 10.2055 2.07376C10.733 2.60121 11.0293 3.31658 11.0293 4.0625V4.625Z" fill="white"/>
</svg>
